<?xml version="1.0" standalone="no"?><!DOCTYPE svg PUBLIC "-//W3C//DTD SVG 1.1//EN" "http://www.w3.org/Graphics/SVG/1.1/DTD/svg11.dtd"><svg t="1622092596053" class="icon" viewBox="0 0 1024 1024" version="1.1" xmlns="http://www.w3.org/2000/svg" p-id="1245" xmlns:xlink="http://www.w3.org/1999/xlink" width="128" height="128"><defs><style type="text/css"></style></defs><path d="M512 87.04q88.064 0 165.376 33.28t134.656 91.136 90.624 135.168T935.936 512t-33.28 164.864-90.624 134.656-134.656 91.136T512 935.936t-164.864-33.28T212.48 811.52t-91.136-134.656T88.064 512t33.28-165.376 91.136-135.168 134.656-91.136T512 87.04z m248.832 617.472q5.12-14.336 8.192-32.256t5.12-38.4q-14.336-5.12-28.16-10.752t-28.16-11.776q-1.024 12.288-3.072 27.648t-5.12 34.816q-5.12 30.72-45.056 30.72h-30.72q-40.96 3.072-37.888-34.816v-138.24l77.824-2.048 35.84 35.84 46.08-40.96q-39.936-35.84-79.36-70.656t-78.336-67.584l-39.936 30.72q5.12 5.12 12.8 11.776t17.92 16.896q22.528 19.456 31.744 31.744l-241.664 6.144q55.296-46.08 131.072-121.856h257.024v-56.32H550.912q-1.024-3.072-2.048-9.216l-4.096-14.336q-5.12-16.384-8.704-26.624t-4.608-16.384l-67.584 7.168q2.048 5.12 5.12 15.36t8.192 24.576q5.12 15.36 6.144 19.456H245.76v56.32h184.32q-48.128 53.248-98.304 93.184-22.528 22.528-53.248 35.84l29.696 56.32q8.192-2.048 24.064-4.096t42.496-4.096h24.576q0 76.8-33.792 110.592-29.696 35.84-126.976 66.56 2.048 4.096 5.12 8.704t8.192 11.776q8.192 11.264 13.824 19.456t8.704 14.336q198.656-61.44 186.368-236.544l74.752-2.048v155.648q-2.048 71.68 73.728 68.608h66.56q72.704 3.072 84.992-51.2z" ></path></svg>
