<?xml version="1.0" standalone="no"?><!DOCTYPE svg PUBLIC "-//W3C//DTD SVG 1.1//EN" "http://www.w3.org/Graphics/SVG/1.1/DTD/svg11.dtd"><svg t="1622093558929" class="icon" viewBox="0 0 1024 1024" version="1.1" xmlns="http://www.w3.org/2000/svg" p-id="16715" xmlns:xlink="http://www.w3.org/1999/xlink" width="200" height="200"><defs><style type="text/css"></style></defs><path d="M651.1 440.1c0-40.6-28.9-54.8-54.5-67.2-20.3-9.9-37.9-18.5-37.9-38.4 0-17.6 11.9-29 30.4-29 16.8 0 26 6 38.1 17.8l2.2 2.1 18.3-20.2-1.9-2C635.5 292.4 622 281 600 277.9v-33.1h-25.3v33.8c-29.3 5.3-48.1 27.4-48.1 57.1 0 35.4 27 49.1 50.9 61.3 21.3 10.8 41.5 21.1 41.5 45 0 20-12.2 31-34.3 31-16.4 0-32.4-6.8-48.9-20.8l-2.4-2.1-16 23 1.9 1.7c14.7 13.5 35.7 23.3 55.4 25.8v33.1H600v-33.8c31.6-5.6 51.1-28.3 51.1-59.8z" fill="#3468F7" p-id="16716"></path><path d="M904 514.9c-19.9-12.5-43-18.9-67-19.3 12.2-31.2 18.6-64.6 18.6-98.4 0-148.5-120.8-269.4-269.4-269.4-148.5 0-269.4 120.8-269.4 269.4 0 22.3 2.7 44.3 8.1 65.7l-53-18.9c-3.9-24.5-25.2-43.2-50.8-43.2H64.2v461.5h150.7c19.1 0 36.1-9.3 46.6-23.7h316.9c36.5 0 72.1-10.2 103.1-29.4l263.9-163.8c8.8-5.4 14.1-15 14.1-25.3-0.2-44.8-20.3-83.2-55.5-105.2z m-515.9-48.8c-7.7-22.1-11.6-45.3-11.6-69 0-115.7 94.1-209.8 209.8-209.8 115.7 0 209.8 94.1 209.8 209.8 0 37.9-10.2 75-29.5 107.3-2 3.6-3.6 6.9-4.8 9.9l-125.1 60.8c-3.5-1.9-7.4-3.7-11.8-5.4l-230-81.9c-1.9-8.2-4.9-16.2-6.8-21.7z m-115.6 41.4l214.6 76.4H272.5v-76.4zM650 758.6C628.5 772 603.7 779 578.3 779H272.5V643.4h353c4.5 0 9-1 13-3l154.6-75.1c27.5-13.4 57.9-13.3 79.3 0 13.9 8.7 22.7 22.1 25.9 39.1L650 758.6z"  ></path></svg>