<svg t="1622093340776" class="icon" viewBox="0 0 1024 1024" version="1.1" xmlns="http://www.w3.org/2000/svg" p-id="14482" width="200" height="200"><path d="M754.7 272H259.3c-20.6 0-37.3 16.5-37.3 36.8v406.4c0 20.3 16.7 36.8 37.3 36.8h278.9c7.6 0 13.8-6.2 13.8-13.8s-6.2-13.8-13.8-13.8H268.7c-10.3 0-18.7-8.2-18.7-18.4V592h152c44.2 0 80-35.8 80-80s-35.8-80-80-80H250V318c0-10.2 8.4-18.4 18.7-18.4h476.7c10.3 0 18.7 8.2 18.7 18.4v180.2c0 7.6 6.2 13.8 13.8 13.8h0.4c7.6 0 13.8-6.2 13.8-13.8V308.8c-0.1-20.3-16.8-36.8-37.4-36.8zM252 462h150c27.6 0 50 22.4 50 50s-22.4 50-50 50H252V462z" fill="#08a4f8" p-id="14483"></path><path d="M407 512m-15 0a15 15 0 1 0 30 0 15 15 0 1 0-30 0Z" fill="#08a4f8" p-id="14484"></path><path d="M837.6 647.4c-0.1-0.1-0.3-0.2-0.4-0.3-0.1-0.1-0.2-0.2-0.3-0.4l-69-69c-5.9-5.9-15.4-5.9-21.2 0-5.9 5.9-5.9 15.4 0 21.2l43.8 43.8H616c-8.3 0-15 6.7-15 15s6.7 15 15 15h175.1l-43.7 43.7c-5.9 5.9-5.9 15.4 0 21.2 5.9 5.9 15.4 5.9 21.2 0l69-69c5.9-5.8 5.9-15.3 0-21.2z" ></path></svg>
